<?xml version="1.0" encoding="iso-8859-1"?>
<!-- Generator: Adobe Illustrator 19.0.0, SVG Export Plug-In . SVG Version: 6.00 Build 0)  -->
<svg version="1.1" id="Capa_1" xmlns="http://www.w3.org/2000/svg" xmlns:xlink="http://www.w3.org/1999/xlink" x="0px" y="0px"
	 viewBox="0 0 511.999 511.999" style="enable-background:new 0 0 511.999 511.999;" xml:space="preserve">
<g>
	<g>
		<path d="M408.794,93.465L365.941,27.89c4.4-2.615,7.358-7.401,7.358-12.89c0-8.284-6.716-15-15-15h-204.6c-8.284,0-15,6.716-15,15
			c0,5.489,2.958,10.276,7.358,12.89l-42.853,65.574c-1.594,2.44-2.443,5.292-2.443,8.206v325.262
			c0,20.794,14.178,38.332,33.373,43.474l14.827,26.318c5.309,9.422,15.325,15.275,26.14,15.275h161.797
			c10.815,0,20.831-5.854,26.14-15.276l14.827-26.317c19.195-5.142,33.373-22.68,33.373-43.474V101.671
			C411.237,98.757,410.388,95.905,408.794,93.465z M180.517,30h150.964l34.648,53.019h-220.26L180.517,30z M336.897,482
			l-161.799-0.001l-5.667-10.06h173.135L336.897,482z M381.238,426.933L381.238,426.933c-0.001,8.274-6.733,15.007-15.008,15.007
			H145.768c-8.275,0-15.007-6.732-15.007-15.007V113.019h250.477V426.933z"/>
	</g>
</g>
<g>
	<g>
		<path d="M255.999,171.039c-59.563,0-108.021,48.458-108.021,108.021s48.458,108.022,108.021,108.022
			S364.02,338.624,364.02,279.061S315.562,171.039,255.999,171.039z M255.999,357.081c-43.021,0-78.021-35-78.021-78.021
			s35-78.021,78.021-78.021s78.021,35,78.021,78.021S299.02,357.081,255.999,357.081z"/>
	</g>
</g>
<g>
</g>
<g>
</g>
<g>
</g>
<g>
</g>
<g>
</g>
<g>
</g>
<g>
</g>
<g>
</g>
<g>
</g>
<g>
</g>
<g>
</g>
<g>
</g>
<g>
</g>
<g>
</g>
<g>
</g>
</svg>
