<?xml version="1.0"?>
<svg xmlns="http://www.w3.org/2000/svg" id="Layer_1" enable-background="new 0 0 512 512" height="512px" viewBox="0 0 512 512" width="512px" class=""><g><g><g><path d="m476.5 269.5v105c0 30.38-24.62 55-55 55h-39v-30h34c16.57 0 30-13.43 30-30v-95c0-16.57-13.43-30-30-30h-34v-30h39c30.38 0 55 24.62 55 55z" fill="#f0e5e0" data-original="#F0E5E0" class="" data-old_color="#f0e5e0" style="fill:#FFFFFF"/><path d="m476.5 269.5v105c0 30.38-24.62 55-55 55h-30c30.38 0 55-24.62 55-55v-105c0-30.38-24.62-55-55-55h30c30.38 0 55 24.62 55 55z" fill="#e2d6d1" data-original="#E2D6D1" class="" data-old_color="#e2d6d1" style="fill:#FFFFFF"/><path d="m136.5 158.333h256v325.333h-256z" fill="#faf2f3" data-original="#FAF2F3" class="" data-old_color="#faf2f3" style="fill:#FFFFFF"/><path d="m362.5 158.33h30v325.34h-30z" fill="#f0e5e0" data-original="#F0E5E0" class="" data-old_color="#f0e5e0" style="fill:#FFFFFF"/><path d="m145 139.5h254.5c5.523 0 10 4.477 10 10v15c0 5.523-4.477 10-10 10h-248.5z" fill="#f0e5e0" data-original="#F0E5E0" class="" data-old_color="#f0e5e0" style="fill:#FFFFFF"/><path d="m409.5 149.5v15c0 5.52-4.48 10-10 10h-30c5.52 0 10-4.48 10-10v-15c0-5.52-4.48-10-10-10h30c5.52 0 10 4.48 10 10z" fill="#e2d6d1" data-original="#E2D6D1" class="" data-old_color="#e2d6d1" style="fill:#FFFFFF"/><path d="m145 469.5h254.5c5.523 0 10 4.477 10 10v15c0 5.523-4.477 10-10 10h-248.5z" fill="#f0e5e0" data-original="#F0E5E0" class="" data-old_color="#f0e5e0" style="fill:#FFFFFF"/><path d="m409.5 479.5v15c0 5.52-4.48 10-10 10h-30c5.52 0 10-4.48 10-10v-15c0-5.52-4.48-10-10-10h30c5.52 0 10 4.48 10 10z" fill="#e2d6d1" data-original="#E2D6D1" class="" data-old_color="#e2d6d1" style="fill:#FFFFFF"/><path d="m352.5 439.5h-182c-5.523 0-10-4.477-10-10v-195h202v195c0 5.523-4.477 10-10 10z" fill="#ffe07d" data-original="#FFE07D" class="" data-old_color="#ffe07d" style="fill:#FFFFFF"/><path d="m170.5 214.5h182c5.523 0 10 4.477 10 10v20h-202v-20c0-5.523 4.477-10 10-10z" fill="#fff" data-original="#FFF" class=""/><path d="m261.5 391.5c8.284 0 15-6.716 15-15 0-8.284-6.716-15-15-15-8.284 0-15 6.716-15 15 0 8.284 6.716 15 15 15z" fill="#ffd064" data-original="#FFD064" class="" data-old_color="#ffd064" style="fill:#FFFFFF"/><path d="m317.5 322.5c-8.284 0-15-6.716-15-15 0-8.284 6.716-15 15-15 8.284 0 15 6.716 15 15 0 8.284-6.716 15-15 15z" fill="#ffd064" data-original="#FFD064" class="" data-old_color="#ffd064" style="fill:#FFFFFF"/><path d="m174.152 134.436-17.652-91.936-28.5-13.5-28.5 13.5-17.652 91.936c-3.137 16.339-13.284 30.281-27.419 39.057-11.363 7.055-18.929 19.648-18.929 34.007v257c0 22.091 17.909 40 40 40h105c22.091 0 40-17.909 40-40v-257c0-14.359-7.566-26.952-18.93-34.007-14.135-8.776-24.281-22.718-27.418-39.057z" fill="#ccf49f" data-original="#CCF49F" class="" data-old_color="#ccf49f" style="fill:#FFFFFF"/><path d="m220.5 207.5v257c0 22.09-17.91 40-40 40h-30c22.09 0 40-17.91 40-40v-257c0-14.36-7.57-26.95-18.93-34.01-14.13-8.77-24.28-22.71-27.42-39.05l-17.65-91.94h30l17.65 91.94c3.14 16.34 13.29 30.28 27.42 39.05 11.36 7.06 18.93 19.65 18.93 34.01z" fill="#b3e59f" data-original="#B3E59F" class="" data-old_color="#b3e59f" style="fill:#FFFFFF"/><path d="m35.5 273h185v124h-185z" fill="#a69ded" data-original="#A69DED" class="" data-old_color="#a69ded" style="fill:#FFFFFF"/><path d="m190.5 273h30v124h-30z" fill="#8f8fea" data-original="#8F8FEA" class="" data-old_color="#8f8fea" style="fill:#FFFFFF"/><path d="m158.243 42.5h-60.486c-6.644 0-11.44-6.359-9.615-12.747l3.25-11.374c1.84-6.439 7.725-10.879 14.423-10.879h44.371c6.697 0 12.583 4.44 14.423 10.879l3.25 11.374c1.824 6.388-2.973 12.747-9.616 12.747z" fill="#b3e59f" data-original="#B3E59F" class="" data-old_color="#b3e59f" style="fill:#FFFFFF"/><path d="m158.24 42.5h-30c5.21 0 9.29-3.92 9.92-8.69.18-1.31.09-2.68-.3-4.06l-3.25-11.37c-1.84-6.44-7.73-10.88-14.42-10.88h30c6.69 0 12.58 4.44 14.42 10.88l3.25 11.37c1.82 6.39-2.97 12.75-9.62 12.75z" fill="#95d6a4" data-original="#95D6A4" class="" data-old_color="#95d6a4" style="fill:#FFFFFF"/><path d="m128 449.5c-26.234 0-47.5-21.266-47.5-47.5v-134c0-26.233 21.266-47.5 47.5-47.5 26.234 0 47.5 21.266 47.5 47.5v134c0 26.234-21.266 47.5-47.5 47.5z" fill="#c3aff0" data-original="#C3AFF0" class="active-path" data-old_color="#c3aff0" style="fill:#FFFFFF"/><path d="m128 352.5c-9.665 0-17.5-7.835-17.5-17.5 0-9.665 7.835-17.5 17.5-17.5 9.665 0 17.5 7.835 17.5 17.5 0 9.665-7.835 17.5-17.5 17.5z" fill="#a69ded" data-original="#A69DED" class="" data-old_color="#a69ded" style="fill:#FFFFFF"/></g><g><path d="m421.5 207h-21.5v-25-.025c9.417-.268 17-7.994 17-17.475v-15c0-9.649-7.851-17.5-17.5-17.5h-218.179l-16.026-83.47c2.695-1.183 5.076-3.047 6.919-5.492 3.337-4.424 4.378-10.018 2.855-15.346l-3.25-11.373c-2.744-9.609-11.641-16.319-21.633-16.319h-44.371c-9.993 0-18.89 6.71-21.635 16.319l-3.25 11.374c-1.522 5.329-.481 10.922 2.855 15.346 1.844 2.444 4.224 4.309 6.919 5.492l-16.223 84.492c-2.659 13.848-11.41 26.276-24.009 34.1-14.071 8.735-22.472 23.83-22.472 40.377v154.5c0 4.142 3.358 7.5 7.5 7.5s7.5-3.358 7.5-7.5v-81.5h30v109h-37.5c-4.142 0-7.5 3.358-7.5 7.5v67.5c0 26.191 21.309 47.5 47.5 47.5h324c9.649 0 17.5-7.851 17.5-17.5v-15c0-9.481-7.583-17.207-17-17.475v-25.025h21.5c34.463 0 62.5-28.038 62.5-62.5v-105c0-34.462-28.037-62.5-62.5-62.5zm-21.5 45h16.5c12.406 0 22.5 10.093 22.5 22.5v95c0 12.407-10.094 22.5-22.5 22.5h-16.5zm2-102.5v15c0 1.378-1.121 2.5-2.5 2.5h-37c-4.143 0-7.5 3.358-7.5 7.5s3.357 7.5 7.5 7.5h22.5v280h-157v-15h124.5c9.649 0 17.5-7.851 17.5-17.5v-185-20c0-9.649-7.851-17.5-17.5-17.5h-124.516c-.093-9.054-2.694-17.656-7.37-25h106.886c4.143 0 7.5-3.358 7.5-7.5s-3.357-7.5-7.5-7.5h-121.833c-.102 0-.201.011-.302.015-8.078-5.055-14.55-12.011-18.843-20.015h212.978c1.379 0 2.5 1.122 2.5 2.5zm-219 131h30v109h-30zm169.5-58.5c1.379 0 2.5 1.122 2.5 2.5v12.5h-127v-15zm-124.5 30h127v177.5c0 1.378-1.121 2.5-2.5 2.5h-124.5zm-132.646-220.187 3.25-11.374c.915-3.203 3.88-5.439 7.211-5.439h44.371c3.331 0 6.296 2.237 7.211 5.44l3.25 11.374c.257 1.861-.544 2.923-2.404 3.187h-60.486c-1.86-.265-2.661-1.327-2.403-3.188zm-52.354 175.687c0-11.323 5.751-21.653 15.386-27.635 16.146-10.025 27.382-26.067 30.828-44.015l16.483-85.85h44.606l16.484 85.85c3.446 17.947 14.682 33.99 30.828 44.015 9.634 5.982 15.385 16.312 15.385 27.635v58h-30.063c-1.313-29.171-25.448-52.5-54.937-52.5s-53.624 23.329-54.937 52.5h-30.063zm125 60.5v134c0 22.056-17.944 40-40 40s-40-17.944-40-40v-134c0-22.056 17.944-40 40-40s40 17.944 40 40zm-92.5 229c-17.92 0-32.5-14.58-32.5-32.5v-60h30.063c1.313 29.171 25.448 52.5 54.937 52.5s53.624-23.329 54.937-52.5h30.063v60c0 17.92-14.58 32.5-32.5 32.5zm326.5-17.5v15c0 1.378-1.121 2.5-2.5 2.5h-184.406c5.241-5.576 9.152-12.41 11.225-20h173.181c1.379 0 2.5 1.122 2.5 2.5zm67-105c0 26.191-21.309 47.5-47.5 47.5h-21.5v-15h16.5c20.678 0 37.5-16.822 37.5-37.5v-95c0-20.678-16.822-37.5-37.5-37.5h-16.5v-15h21.5c26.191 0 47.5 21.309 47.5 47.5z" data-original="#000000" class="" style="fill:#000000"/><path d="m261.5 354c-12.407 0-22.5 10.093-22.5 22.5s10.093 22.5 22.5 22.5c12.406 0 22.5-10.093 22.5-22.5s-10.094-22.5-22.5-22.5zm0 30c-4.136 0-7.5-3.364-7.5-7.5s3.364-7.5 7.5-7.5 7.5 3.364 7.5 7.5-3.364 7.5-7.5 7.5z" data-original="#000000" class="" style="fill:#000000"/><path d="m317.5 285c-12.406 0-22.5 10.093-22.5 22.5s10.094 22.5 22.5 22.5 22.5-10.093 22.5-22.5-10.094-22.5-22.5-22.5zm0 30c-4.136 0-7.5-3.364-7.5-7.5s3.364-7.5 7.5-7.5 7.5 3.364 7.5 7.5-3.364 7.5-7.5 7.5z" data-original="#000000" class="" style="fill:#000000"/><path d="m128 310c-13.785 0-25 11.215-25 25s11.215 25 25 25 25-11.215 25-25-11.215-25-25-25zm0 35c-5.514 0-10-4.486-10-10s4.486-10 10-10 10 4.486 10 10-4.486 10-10 10z" data-original="#000000" class="" style="fill:#000000"/></g></g></g> </svg>
